# xmcd
#
# Track frame offsets:
#	150
#	1362
#	20492
#	37600
#	51672
#	67762
#	85484
#	98149
#	102119
#	121624
#	140876
#	141976
#	159698
#	174661
#	177489
#	195990
#	211752
#	230463
#	247571
#	259874
#	279065
#	289457
#	296450
#	314507
#
# Disc length: 4440 seconds
#
# Revision: 0
# Processed by: cddbd v1.5.1PL2 Copyright (c) Steve Scherf et al.
# Submitted via: EasyCDDAExtractor 8.2.4.1
#
DISCID=51115618
DTITLE=Various Artist - Endangered Species
DYEAR=2001
DGENRE=Hip-Hop
TTITLE0=Big Pun - Intro
TTITLE1=Big Pun - You Ain't A Killer
TTITLE2=Big Pun - Twinz (Deep Cover '98) (Featuring Fat Joe)
TTITLE3=Big Pun - Whatcha Gon Do (Featuring Terror Squad)
TTITLE4=Big Pun - How We Roll (Featuring Ashanti)
TTITLE5=Big Pun - Still Not A Player (Featuring Fat Joe)
TTITLE6=Big Pun - Off The Books (Featuring The Beatnuts)
TTITLE7=Noreaga - Words From Nore
TTITLE8=Big Pun - Banned From T.V. (Featuring Noreaga)
TTITLE9=Big Pun - Mama (Featuring Tony Sunshine)
TTITLE10=Big Pun - The Beat Box
TTITLE11=Big Pun - Brave In The Heart (Featuring Terror Squad)
TTITLE12=Big Pun - The Dream Shatter
TTITLE13=Fat Joe - Words From Fat Joe
TTITLE14=Big Pun - John Blaze (Featuring Fat Joe, Nas, Raekwon and Jadakiss)
TTITLE15=Big Pun - My World
TTITLE16=Big Pun - Pina Colada (Featuring Sheek)
TTITLE17=Big Pun - Top Of The World (Remix)
TTITLE18=Big Pun - Livin' La Vida Loca (Remix)
TTITLE19=Big Pun - Fire Water (Featuring Fat Joe)
TTITLE20=Big Pun - Classic Verses
TTITLE21=Big Pun - Freestyle (Featuring Remy Martin)
TTITLE22=Big Pun - Wishful Thinkinig (Featuring Fat Joe)
TTITLE23=Big Pun - How We Roll '98
EXTD=
EXTT0=
EXTT1=
EXTT2=
EXTT3=
EXTT4=
EXTT5=
EXTT6=
EXTT7=
EXTT8=
EXTT9=
EXTT10=
EXTT11=
EXTT12=
EXTT13=
EXTT14=
EXTT15=
EXTT16=
EXTT17=
EXTT18=
EXTT19=
EXTT20=
EXTT21=
EXTT22=
EXTT23=
PLAYORDER=
